# xmcd CD database file
#
# Track frame offsets:
#	150
#	13008
#	27764
#	42910
#	55654
#	72170
#	83813
#	99817
#	114419
#	127877
#	144364
#
# Disc length: 2124 seconds
#
# Revision: 1
# Processed by: cddbd v1.5.2PL0 Copyright (c) Steve Scherf et al.
# Submitted via: CDex 1.51
#
DISCID=7e084a0b
DTITLE=Dan and Shay - Dan and Shay
DYEAR=2018
DGENRE=Country
TTITLE0=Dan and Shay - Alone Together
TTITLE1=Dan and Shay - Tequila
TTITLE2=Dan and Shay - What Keeps You Up At Night
TTITLE3=Dan and Shay - All To Myself
TTITLE4=Dan and Shay feat. Kelly Clarkson - Keeping Score
TTITLE5=Dan and Shay - Make Or Break
TTITLE6=Dan and Shay - Speechless
TTITLE7=Dan and Shay - Stupid Love
TTITLE8=Dan and Shay - No Such Thing
TTITLE9=Dan and Shay - My Side Of The Fence
TTITLE10=Dan and Shay - Island Time
EXTD=YEAR: 2018
EXTT0=
EXTT1=
EXTT2=
EXTT3=
EXTT4=
EXTT5=
EXTT6=
EXTT7=
EXTT8=
EXTT9=
EXTT10=
PLAYORDER=
